<?xml version="1.0" encoding="utf-8"?>
<!-- Generator: Adobe Illustrator 26.1.0, SVG Export Plug-In . SVG Version: 6.00 Build 0)  -->
<svg version="1.1" id="Слой_1" xmlns="http://www.w3.org/2000/svg" xmlns:xlink="http://www.w3.org/1999/xlink" x="0px" y="0px"
	 viewBox="0 0 64 64" style="enable-background:new 0 0 64 64;" xml:space="preserve">
<style type="text/css">
	.st0{fill:#009845;}
	.st1{fill:#FFFFFF;}
</style>
<g>
	<g>
		<path class="st0" d="M41,63C37,63,27,63,23,63c-1.6,0-3.3-0.2-4.9-0.6c-7.9-2.1-14.5-8.7-16.5-16.5C1.2,44.3,1,42.7,1,41
			c0-4.2,0-14.9,0-19c0-1.7,0.2-3.3,0.6-4.9C3.7,9.1,10.8,3,19,1.3C20.2,1.1,21.5,1,22.8,1L41,1c1.6,0,3.3,0.2,4.9,0.6
			c7.9,2.1,14.5,8.7,16.5,16.5c0.4,1.6,0.6,3.2,0.6,4.9c0,4,0,14.1,0,18.1c0,1.6-0.2,3.3-0.6,4.9c-2.1,7.9-8.7,14.5-16.5,16.5
			C44.3,62.8,42.7,63,41,63z"/>
	</g>
	<g>
		<g>
			<g>
				<path class="st1" d="M38.9,37c-1,5.9-5.4,9.8-13.2,9.8c-9.3,0-13.8-6.2-13.8-14.4c0-8,4.5-14.8,14.2-14.8
					c8.4,0,12.2,4.8,12.7,9.7h-8.3c-0.4-2-1.6-3.9-4.6-3.9c-4.1,0-5.4,3.8-5.4,8.7c0,4.5,1.2,8.9,5.5,8.9c3.3,0,4.2-2.4,4.6-4H38.9z
					"/>
				<path class="st1" d="M43.6,46.3V29.5h-3.1v-4.4h3.1v-1.9c0-4.4,2.2-7.2,6.8-7.2c1,0,2.2,0.1,2.8,0.2v4.6
					c-0.3-0.1-0.8-0.1-1.2-0.1c-1.7,0-2.4,0.6-2.4,2.9v1.4h3.7v4.4h-3.7v16.8H43.6z"/>
			</g>
		</g>
	</g>
</g>
</svg>
